<?xml version="1.0" encoding="UTF-8"?>
<svg xmlns="http://www.w3.org/2000/svg" xmlns:xlink="http://www.w3.org/1999/xlink" width="128px" height="128px" viewBox="0 0 128 128" version="1.1">
<g id="surface1">
<path style=" stroke:none;filRule:evenodd;fill:rgb(100%,36.470588%,0.392157%);fill-opacity:1;" d="M 23.601562 75.386719 C 22.210938 78.71875 21.4375 82.277344 21.3125 85.882812 C 21.503906 88.109375 22.261719 90.246094 23.515625 92.097656 C 25.875 94.828125 28.710938 97.105469 31.886719 98.820312 L 52.398438 112.476562 C 54.925781 114.484375 57.761719 116.0625 60.800781 117.148438 C 62.773438 117.617188 64.828125 117.617188 66.800781 117.148438 C 69.859375 116.078125 72.71875 114.507812 75.269531 112.507812 L 96 98.84375 C 99.207031 97.125 102.078125 94.835938 104.46875 92.09375 C 105.730469 90.234375 106.488281 88.078125 106.667969 85.839844 C 106.53125 82.203125 105.734375 78.621094 104.320312 75.269531 L 86.1875 18.203125 C 85.785156 16.355469 85.050781 14.59375 84.027344 13.003906 C 83.28125 12.097656 82.320312 11.394531 81.226562 10.964844 C 79.40625 10.46875 77.507812 10.304688 75.628906 10.476562 L 52.019531 10.476562 C 50.136719 10.304688 48.242188 10.472656 46.421875 10.976562 C 45.328125 11.40625 44.363281 12.113281 43.621094 13.023438 C 42.601562 14.613281 41.875 16.375 41.480469 18.222656 L 23.601562 75.390625 Z M 76.558594 22.589844 C 77.402344 23.929688 78 25.410156 78.324219 26.960938 L 93.890625 78.097656 C 88.042969 75.0625 81.769531 72.941406 75.28125 71.804688 L 65.164062 37.5625 C 65.039062 37.152344 64.71875 36.828125 64.3125 36.695312 C 63.90625 36.5625 63.457031 36.632812 63.113281 36.886719 C 62.882812 37.054688 62.714844 37.292969 62.636719 37.5625 L 52.636719 71.792969 C 46.117188 72.925781 39.8125 75.058594 33.941406 78.109375 L 49.570312 26.972656 C 49.890625 25.417969 50.492188 23.9375 51.339844 22.597656 C 51.960938 21.835938 52.761719 21.246094 53.667969 20.875 C 55.199219 20.460938 56.789062 20.328125 58.367188 20.476562 L 69.539062 20.476562 C 71.121094 20.328125 72.710938 20.460938 74.242188 20.875 C 75.15625 21.246094 75.957031 21.839844 76.574219 22.605469 Z M 64.507812 84.238281 C 69.320312 84.519531 74.097656 83.222656 78.109375 80.546875 C 79.03125 83.449219 78.730469 86.601562 77.28125 89.277344 C 75.804688 91.785156 73.664062 93.835938 71.09375 95.199219 C 68.394531 96.910156 66.074219 98.398438 66.074219 102.347656 C 66.074219 103.613281 66.359375 104.863281 66.910156 106.003906 C 63.195312 104.460938 60.769531 100.828125 60.773438 96.804688 L 60.773438 96.558594 C 60.773438 93.828125 60.773438 90.464844 56.925781 90.464844 C 56.386719 90.464844 55.855469 90.566406 55.359375 90.773438 C 54.363281 91.183594 53.566406 91.976562 53.152344 92.976562 C 52.945312 93.472656 52.839844 94.003906 52.835938 94.539062 C 50.199219 91.660156 48.78125 87.867188 48.882812 83.964844 C 48.867188 82.273438 49.101562 80.589844 49.585938 78.972656 C 51.183594 82 57.265625 84.253906 64.507812 84.253906 Z M 64.507812 84.238281 "/>
</g>
</svg>
